<?xml version="1.0" standalone="no"?><svg xmlns="http://www.w3.org/2000/svg" viewBox="0 0 1440 320"><path fill="#000b76" fill-opacity="1" d="M0,128L24,138.7C48,149,96,171,144,176C192,181,240,171,288,160C336,149,384,139,432,144C480,149,528,171,576,186.7C624,203,672,213,720,224C768,235,816,245,864,213.3C912,181,960,107,1008,101.3C1056,96,1104,160,1152,160C1200,160,1248,96,1296,74.7C1344,53,1392,75,1416,85.3L1440,96L1440,320L1416,320C1392,320,1344,320,1296,320C1248,320,1200,320,1152,320C1104,320,1056,320,1008,320C960,320,912,320,864,320C816,320,768,320,720,320C672,320,624,320,576,320C528,320,480,320,432,320C384,320,336,320,288,320C240,320,192,320,144,320C96,320,48,320,24,320L0,320Z"></path></svg>